<svg width="40" height="40" viewBox="0 0 40 40" fill="none" xmlns="http://www.w3.org/2000/svg">
<path fill-rule="evenodd" clip-rule="evenodd" d="M20 0C31.0457 0 40 8.9543 40 20C40 31.0457 31.0457 40 20 40C8.9543 40 0 31.0457 0 20C0 8.9543 8.9543 0 20 0ZM20 1.5C9.78273 1.5 1.5 9.78273 1.5 20C1.5 30.2173 9.78273 38.5 20 38.5C30.2173 38.5 38.5 30.2173 38.5 20C38.5 9.78273 30.2173 1.5 20 1.5ZM19.2308 16.8824C19.2308 14.7382 17.5088 13 15.3846 13H10.7692L10.6649 13.0071C10.2894 13.0585 10 13.3834 10 13.7765V19.9883V26.2002L10.007 26.3056C10.058 26.6846 10.3798 26.9767 10.7692 26.9767H15.3846L15.5889 26.9713C17.6181 26.8641 19.2308 25.1693 19.2308 23.0943L19.2254 22.8881C19.1653 21.7274 18.6001 20.7016 17.7474 20.0307L17.6903 19.9883L17.7474 19.946C18.6502 19.2356 19.2308 18.1274 19.2308 16.8824ZM11.5385 25.4237V20.7648H15.3846L15.5426 20.7702C16.7434 20.8522 17.6923 21.8614 17.6923 23.0943L17.687 23.2538C17.6058 24.4659 16.606 25.4237 15.3846 25.4237H11.5385ZM15.3846 19.2119C15.395 19.2119 15.4053 19.2121 15.4155 19.2125L15.5426 19.2065C16.7434 19.1245 17.6923 18.1153 17.6923 16.8824C17.6923 15.6495 16.7434 14.6403 15.5426 14.5583L15.3846 14.553H11.5385V19.2119H15.3846ZM25.641 16.6236C28.0484 16.6236 30 18.5936 30 21.0237C30 21.4168 29.7106 21.7416 29.3351 21.793L29.2308 21.8001H22.8205V23.0353L22.8448 23.1739C23.0689 24.2747 23.9163 25.1409 25.004 25.3809L25.1874 25.4151C26.4243 25.6031 27.6361 24.9463 28.1642 23.8018C28.3436 23.413 28.8012 23.2446 29.1863 23.4257C29.5714 23.6068 29.7382 24.0687 29.5588 24.4574C28.7427 26.2263 26.8698 27.2413 24.9583 26.9507C23.1175 26.6709 21.6643 25.2447 21.3236 23.4133L21.2892 23.2003L21.2821 23.0943V21.0237C21.2821 18.5936 23.2336 16.6236 25.641 16.6236ZM25.641 18.1766C24.3718 18.1766 23.2983 19.0228 22.9443 20.1869L22.9272 20.2472H28.3538L28.3378 20.1869C27.9998 19.0758 27.0064 18.2541 25.8128 18.1817L25.641 18.1766ZM27.1795 13C27.6043 13 27.9487 13.3476 27.9487 13.7765C27.9487 14.1696 27.6593 14.4945 27.2839 14.5459L27.1795 14.553H24.1026C23.6777 14.553 23.3333 14.2053 23.3333 13.7765C23.3333 13.3834 23.6227 13.0585 23.9982 13.0071L24.1026 13H27.1795Z" fill="#212121"/>
</svg>
