<svg width="40" height="40" viewBox="0 0 40 40" fill="none" xmlns="http://www.w3.org/2000/svg">
<path fill-rule="evenodd" clip-rule="evenodd" d="M20 0C31.0457 0 40 8.9543 40 20C40 31.0457 31.0457 40 20 40C8.9543 40 0 31.0457 0 20C0 8.9543 8.9543 0 20 0ZM20 1.5C9.78273 1.5 1.5 9.78273 1.5 20C1.5 30.2173 9.78273 38.5 20 38.5C30.2173 38.5 38.5 30.2173 38.5 20C38.5 9.78273 30.2173 1.5 20 1.5ZM30 15.4286C30 12.4305 27.5695 10 24.5714 10H15.4286C12.4305 10 10 12.4305 10 15.4286V24.5714C10 27.5695 12.4305 30 15.4286 30H24.5714C27.5695 30 30 27.5695 30 24.5714V15.4286ZM11.7143 15.4286C11.7143 13.3772 13.3772 11.7143 15.4286 11.7143H24.5714C26.6228 11.7143 28.2857 13.3772 28.2857 15.4286V24.5714C28.2857 26.6228 26.6228 28.2857 24.5714 28.2857H15.4286C13.3772 28.2857 11.7143 26.6228 11.7143 24.5714V15.4286ZM20 15.7143C17.6331 15.7143 15.7143 17.6331 15.7143 20C15.7143 22.3669 17.6331 24.2857 20 24.2857C22.3669 24.2857 24.2857 22.3669 24.2857 20C24.2857 17.6331 22.3669 15.7143 20 15.7143ZM20 17.4286C21.4202 17.4286 22.5714 18.5798 22.5714 20C22.5714 21.4202 21.4202 22.5714 20 22.5714C18.5798 22.5714 17.4286 21.4202 17.4286 20C17.4286 18.5798 18.5798 17.4286 20 17.4286ZM25.1429 14C25.5768 14 25.9354 14.3225 25.9922 14.7408L26 14.8571C26 15.3317 25.6162 15.7154 25.1429 15.7154C24.7089 15.7154 24.3503 15.393 24.2935 14.9746L24.2857 14.8583C24.2857 14.3838 24.6695 14 25.1429 14Z" fill="#212121"/>
</svg>
