<svg width="40" height="40" viewBox="0 0 40 40" fill="none" xmlns="http://www.w3.org/2000/svg">
<path fill-rule="evenodd" clip-rule="evenodd" d="M20 0C31.0457 0 40 8.9543 40 20C40 31.0457 31.0457 40 20 40C8.9543 40 0 31.0457 0 20C0 8.9543 8.9543 0 20 0ZM20 1.5C9.78273 1.5 1.5 9.78273 1.5 20C1.5 30.2173 9.78273 38.5 20 38.5C30.2173 38.5 38.5 30.2173 38.5 20C38.5 9.78273 30.2173 1.5 20 1.5ZM30.1328 17.6167L30.1378 17.1036L30.1428 17.1726C30.1448 17.1859 30.1473 17.1886 30.1492 17.1878L30.5125 16.4478L30.9763 15.522L31.2662 14.9207L31.3941 14.6436C31.6388 14.1047 31.8159 13.6564 31.9254 13.2799L31.9487 13.1906L31.9554 13.1763C32.1188 12.7117 31.8229 12.1177 31.2305 12.1177L31.1167 12.1264L31.0074 12.1515L30.8939 12.1977C30.7009 12.2944 30.502 12.3824 30.291 12.4653L29.8423 12.6281L29.4586 12.7505L28.9693 12.8926L28.3841 13.0568L28.2593 12.9452C26.9775 11.8641 25.2331 11.7351 23.4117 12.4321L23.1986 12.5192C21.4464 13.2814 20.297 14.9488 20.2351 16.8552L20.2328 17.3232L20.0476 17.3135C17.3857 17.1134 15.0301 15.752 13.4391 13.4807C13.1122 13.0141 12.4217 13.0525 12.1464 13.5527L12.0519 13.7367L12.003 13.838C11.2871 15.3506 10.815 17.196 10.9883 19.1402L11.0175 19.4167C11.3089 21.8005 12.6006 23.8416 15.0549 25.3494L15.3269 25.5109L15.1501 25.6122C13.6456 26.4413 12.2886 26.8067 10.7987 26.7475C9.98813 26.7152 9.68937 27.823 10.4016 28.2198C14.0267 30.2391 17.9106 30.8611 21.2489 29.8706C25.3197 28.662 28.4161 25.5475 29.6017 21.2338C29.9205 20.0515 30.0984 18.838 30.1328 17.6167ZM27.5878 14.4574C27.7853 14.6851 28.0938 14.7755 28.3793 14.6894L29.5768 14.3479L29.8728 14.2603L29.6913 14.6419L28.8429 16.3413L28.7397 16.5601C28.6403 16.781 28.61 16.8953 28.6049 17.0395L28.6041 17.1036C28.6109 18.3556 28.4491 19.6045 28.1232 20.8134C27.084 24.5943 24.3891 27.3049 20.8209 28.3643L20.5058 28.4517C18.5158 28.9663 16.2881 28.84 14.0466 28.1176L13.5958 27.964L13.854 27.8861C14.9835 27.5201 16.1131 26.9231 17.3331 26.0925C17.8385 25.7483 17.7711 24.9689 17.2143 24.7208C14.1445 23.353 12.7297 21.3881 12.5167 18.9979L12.4942 18.6532C12.4512 17.6209 12.6249 16.607 12.9217 15.6881L13.0105 15.4273L13.0474 15.4712C15.094 17.7446 17.926 18.9849 21.0198 18.904C21.4358 18.8931 21.7675 18.5453 21.7675 18.12V17.0743C21.7486 15.6566 22.6046 14.4159 23.9499 13.901C25.4649 13.3212 26.7555 13.4974 27.5878 14.4574Z" fill="#212121"/>
</svg>
